<?xml version="1.0" encoding="utf-8"?>
<!-- Generator: Adobe Illustrator 18.1.1, SVG Export Plug-In . SVG Version: 6.00 Build 0)  -->
<svg version="1.1" id="Layer_1" xmlns="http://www.w3.org/2000/svg" xmlns:xlink="http://www.w3.org/1999/xlink" x="0px" y="0px"
	 viewBox="-137.8 362.3 39.5 48" enable-background="new -137.8 362.3 39.5 48" xml:space="preserve">
<path opacity="0.17" d="M-105.9,367.1c0-1-0.8-1.8-1.8-1.8h-20.9c-1,0-1.8,0.8-1.8,1.8V388c0,1,0.8,1.8,1.8,1.8h20.9
	c1,0,1.8-0.8,1.8-1.8V367.1z M-110.6,383.8h-14.2c-0.4,0-0.5-0.3-0.3-0.7l4.1-5.9c0.2-0.3,0.6-0.4,0.9-0.1l0.8,0.8
	c0.3,0.3,0.7,0.3,0.9,0l2-2.4c0.2-0.3,0.6-0.3,0.9,0l5.2,7.6C-110.1,383.5-110.3,383.8-110.6,383.8z M-111.6,376.6
	c-0.9,0-1.7-0.8-1.7-1.7c0-0.9,0.8-1.7,1.7-1.7c0.9,0,1.7,0.8,1.7,1.7C-109.9,375.9-110.7,376.6-111.6,376.6z"/>
<text transform="matrix(1 0 0 1 -122.2619 396.7607)" opacity="0.17"><tspan x="0" y="0" font-family="'MyriadPro-Regular'" font-size="3.9591">Drop</tspan><tspan x="-8" y="4.8" font-family="'MyriadPro-Regular'" font-size="3.9591">201px × 269px</tspan><tspan x="-9" y="9.5" font-family="'MyriadPro-Regular'" font-size="3.9591">screenshot here</tspan></text>
</svg>
